<svg xmlns="http://www.w3.org/2000/svg" viewBox="0 0 512 512" role="img" aria-label="Poke Deal">
  <defs>
    <linearGradient id="bg" x1="80" y1="32" x2="432" y2="480" gradientUnits="userSpaceOnUse">
      <stop stop-color="#111827"/>
      <stop offset=".6" stop-color="#080b13"/>
      <stop offset="1" stop-color="#151a24"/>
    </linearGradient>
    <linearGradient id="red" x1="136" y1="86" x2="384" y2="248" gradientUnits="userSpaceOnUse">
      <stop stop-color="#ff7b74"/>
      <stop offset=".54" stop-color="#ef3340"/>
      <stop offset="1" stop-color="#a61e2b"/>
    </linearGradient>
    <linearGradient id="holo" x1="188" y1="304" x2="336" y2="150" gradientUnits="userSpaceOnUse">
      <stop stop-color="#69e8ff"/>
      <stop offset=".45" stop-color="#8b5cf6"/>
      <stop offset=".76" stop-color="#ff72d2"/>
      <stop offset="1" stop-color="#ffcb05"/>
    </linearGradient>
    <filter id="glow" x="-40%" y="-40%" width="180%" height="180%">
      <feDropShadow dx="0" dy="0" stdDeviation="18" flood-color="#69e8ff" flood-opacity=".55"/>
      <feDropShadow dx="0" dy="18" stdDeviation="18" flood-color="#000000" flood-opacity=".35"/>
    </filter>
  </defs>
  <rect width="512" height="512" rx="104" fill="url(#bg)"/>
  <circle cx="256" cy="256" r="188" fill="#050713" filter="url(#glow)"/>
  <path d="M80 245a176 176 0 0 1 352 0c-58 20-112 23-162 8-63-19-118-14-190-8Z" fill="url(#red)"/>
  <path d="M84 276c52-11 101-8 149 9 66 23 127 14 195-9a176 176 0 0 1-344 0Z" fill="#f8fbff"/>
  <path d="M84 258c75-9 129-8 186 9 49 15 104 12 158-9" fill="none" stroke="#111827" stroke-width="28" stroke-linecap="round"/>
  <path d="M217 324 328 213l34 34-111 111z" fill="url(#holo)" filter="url(#glow)"/>
  <path d="M217 324 328 213l34 34-111 111z" fill="none" stroke="#f8fbff" stroke-width="10" opacity=".9"/>
  <circle cx="256" cy="260" r="64" fill="#111827"/>
  <circle cx="256" cy="260" r="41" fill="#f8fbff"/>
  <circle cx="256" cy="260" r="22" fill="#dbeafe"/>
</svg>
