<svg xmlns="http://www.w3.org/2000/svg" viewBox="0 0 512 512" role="img" aria-label="Poke Deal">
  <defs>
    <linearGradient id="bg" x1="74" y1="38" x2="438" y2="474" gradientUnits="userSpaceOnUse">
      <stop stop-color="#111827"/>
      <stop offset=".58" stop-color="#080b13"/>
      <stop offset="1" stop-color="#151a24"/>
    </linearGradient>
    <linearGradient id="red" x1="136" y1="82" x2="378" y2="250" gradientUnits="userSpaceOnUse">
      <stop stop-color="#ff6670"/>
      <stop offset=".5" stop-color="#ef3340"/>
      <stop offset="1" stop-color="#b91c1c"/>
    </linearGradient>
    <linearGradient id="white" x1="164" y1="268" x2="360" y2="424" gradientUnits="userSpaceOnUse">
      <stop stop-color="#ffffff"/>
      <stop offset="1" stop-color="#d9e3f0"/>
    </linearGradient>
    <filter id="shadow" x="-20%" y="-20%" width="140%" height="140%">
      <feDropShadow dx="0" dy="18" stdDeviation="18" flood-color="#000000" flood-opacity=".35"/>
    </filter>
  </defs>
  <rect width="512" height="512" rx="104" fill="url(#bg)"/>
  <circle cx="256" cy="256" r="186" fill="#0b1220" filter="url(#shadow)"/>
  <path d="M80 256a176 176 0 0 1 352 0H80Z" fill="url(#red)"/>
  <path d="M80 264a176 176 0 0 0 352 0H80Z" fill="url(#white)"/>
  <path d="M80 256h352" stroke="#111827" stroke-width="30" stroke-linecap="round"/>
  <circle cx="256" cy="256" r="66" fill="#111827"/>
  <circle cx="256" cy="256" r="43" fill="#f8fafc"/>
  <circle cx="256" cy="256" r="25" fill="#dbeafe"/>
  <path d="M148 170c23-34 61-56 108-56 27 0 51 7 72 20" fill="none" stroke="#ffffff" stroke-width="24" stroke-linecap="round" opacity=".28"/>
</svg>
